<mxfile host="Electron" modified="2024-02-21T15:58:25.437Z" agent="Mozilla/5.0 (X11; Linux x86_64) AppleWebKit/537.36 (KHTML, like Gecko) draw.io/23.1.5 Chrome/120.0.6099.109 Electron/28.1.0 Safari/537.36" etag="T-KpeGc4easGU4zfkhsw" version="23.1.5" type="device">
  <diagram name="Page-1" id="f-L4v_y3aGItW2DXdjQD">
    <mxGraphModel dx="1600" dy="2065" grid="1" gridSize="10" guides="1" tooltips="1" connect="1" arrows="1" fold="1" page="1" pageScale="1" pageWidth="827" pageHeight="1169" math="0" shadow="0">
      <root>
        <mxCell id="0" />
        <mxCell id="1" parent="0" />
        <mxCell id="492jZ1PQydKR7I9emrvx-43" value="" style="rounded=0;whiteSpace=wrap;html=1;" vertex="1" parent="1">
          <mxGeometry x="5" y="-140" width="910" height="680" as="geometry" />
        </mxCell>
        <mxCell id="492jZ1PQydKR7I9emrvx-13" value="" style="rounded=1;whiteSpace=wrap;html=1;strokeColor=default;fillColor=none;connectable=0;" vertex="1" parent="1">
          <mxGeometry x="80" y="2" width="760" height="498" as="geometry" />
        </mxCell>
        <mxCell id="492jZ1PQydKR7I9emrvx-7" value="Grafana&lt;br&gt;1-10x" style="text;html=1;align=center;verticalAlign=middle;resizable=0;points=[];autosize=1;strokeColor=none;fillColor=none;" vertex="1" parent="1">
          <mxGeometry x="225" y="337" width="70" height="40" as="geometry" />
        </mxCell>
        <mxCell id="492jZ1PQydKR7I9emrvx-8" value="Prometheus&lt;br&gt;1-10x" style="text;html=1;align=center;verticalAlign=middle;resizable=0;points=[];autosize=1;strokeColor=none;fillColor=none;" vertex="1" parent="1">
          <mxGeometry x="315" y="337" width="90" height="40" as="geometry" />
        </mxCell>
        <mxCell id="492jZ1PQydKR7I9emrvx-9" value="" style="aspect=fixed;sketch=0;html=1;dashed=0;whitespace=wrap;fillColor=#2875E2;strokeColor=#ffffff;points=[[0.005,0.63,0],[0.1,0.2,0],[0.9,0.2,0],[0.5,0,0],[0.995,0.63,0],[0.72,0.99,0],[0.5,1,0],[0.28,0.99,0]];shape=mxgraph.kubernetes.icon2;prIcon=pod" vertex="1" parent="1">
          <mxGeometry x="451" y="268" width="50" height="48" as="geometry" />
        </mxCell>
        <mxCell id="492jZ1PQydKR7I9emrvx-10" value="" style="image;sketch=0;aspect=fixed;html=1;points=[];align=center;fontSize=12;image=img/lib/mscae/Kubernetes.svg;" vertex="1" parent="1">
          <mxGeometry x="715" y="-20" width="50" height="48" as="geometry" />
        </mxCell>
        <mxCell id="492jZ1PQydKR7I9emrvx-17" style="edgeStyle=orthogonalEdgeStyle;rounded=0;orthogonalLoop=1;jettySize=auto;html=1;strokeWidth=2;" edge="1" parent="1" source="492jZ1PQydKR7I9emrvx-12" target="492jZ1PQydKR7I9emrvx-15">
          <mxGeometry relative="1" as="geometry" />
        </mxCell>
        <mxCell id="492jZ1PQydKR7I9emrvx-12" value="" style="aspect=fixed;sketch=0;html=1;dashed=0;whitespace=wrap;fillColor=#2875E2;strokeColor=#ffffff;points=[[0.005,0.63,0],[0.1,0.2,0],[0.9,0.2,0],[0.5,0,0],[0.995,0.63,0],[0.72,0.99,0],[0.5,1,0],[0.28,0.99,0]];shape=mxgraph.kubernetes.icon2;kubernetesLabel=1;prIcon=ing" vertex="1" parent="1">
          <mxGeometry x="274" y="26" width="50" height="48" as="geometry" />
        </mxCell>
        <mxCell id="492jZ1PQydKR7I9emrvx-15" value="" style="aspect=fixed;sketch=0;html=1;dashed=0;whitespace=wrap;fillColor=#2875E2;strokeColor=#ffffff;points=[[0.005,0.63,0],[0.1,0.2,0],[0.9,0.2,0],[0.5,0,0],[0.995,0.63,0],[0.72,0.99,0],[0.5,1,0],[0.28,0.99,0]];shape=mxgraph.kubernetes.icon2;kubernetesLabel=1;prIcon=svc" vertex="1" parent="1">
          <mxGeometry x="274" y="120" width="50" height="48" as="geometry" />
        </mxCell>
        <mxCell id="492jZ1PQydKR7I9emrvx-19" value="" style="group" vertex="1" connectable="0" parent="1">
          <mxGeometry x="224" y="268" width="70" height="66" as="geometry" />
        </mxCell>
        <mxCell id="492jZ1PQydKR7I9emrvx-2" value="" style="aspect=fixed;sketch=0;html=1;dashed=0;whitespace=wrap;fillColor=#2875E2;strokeColor=#ffffff;points=[[0.005,0.63,0],[0.1,0.2,0],[0.9,0.2,0],[0.5,0,0],[0.995,0.63,0],[0.72,0.99,0],[0.5,1,0],[0.28,0.99,0]];shape=mxgraph.kubernetes.icon2;prIcon=pod" vertex="1" parent="492jZ1PQydKR7I9emrvx-19">
          <mxGeometry width="50" height="48" as="geometry" />
        </mxCell>
        <mxCell id="492jZ1PQydKR7I9emrvx-3" value="" style="aspect=fixed;sketch=0;html=1;dashed=0;whitespace=wrap;fillColor=#2875E2;strokeColor=#ffffff;points=[[0.005,0.63,0],[0.1,0.2,0],[0.9,0.2,0],[0.5,0,0],[0.995,0.63,0],[0.72,0.99,0],[0.5,1,0],[0.28,0.99,0]];shape=mxgraph.kubernetes.icon2;prIcon=pod" vertex="1" parent="492jZ1PQydKR7I9emrvx-19">
          <mxGeometry x="10" y="10" width="50" height="48" as="geometry" />
        </mxCell>
        <mxCell id="492jZ1PQydKR7I9emrvx-4" value="" style="aspect=fixed;sketch=0;html=1;dashed=0;whitespace=wrap;fillColor=#2875E2;strokeColor=#ffffff;points=[[0.005,0.63,0],[0.1,0.2,0],[0.9,0.2,0],[0.5,0,0],[0.995,0.63,0],[0.72,0.99,0],[0.5,1,0],[0.28,0.99,0]];shape=mxgraph.kubernetes.icon2;prIcon=pod" vertex="1" parent="492jZ1PQydKR7I9emrvx-19">
          <mxGeometry x="20" y="18" width="50" height="48" as="geometry" />
        </mxCell>
        <mxCell id="492jZ1PQydKR7I9emrvx-20" value="" style="group" vertex="1" connectable="0" parent="1">
          <mxGeometry x="324" y="266" width="70" height="68" as="geometry" />
        </mxCell>
        <mxCell id="492jZ1PQydKR7I9emrvx-1" value="" style="aspect=fixed;sketch=0;html=1;dashed=0;whitespace=wrap;fillColor=#2875E2;strokeColor=#ffffff;points=[[0.005,0.63,0],[0.1,0.2,0],[0.9,0.2,0],[0.5,0,0],[0.995,0.63,0],[0.72,0.99,0],[0.5,1,0],[0.28,0.99,0]];shape=mxgraph.kubernetes.icon2;prIcon=pod" vertex="1" parent="492jZ1PQydKR7I9emrvx-20">
          <mxGeometry width="50" height="48" as="geometry" />
        </mxCell>
        <mxCell id="492jZ1PQydKR7I9emrvx-5" value="" style="aspect=fixed;sketch=0;html=1;dashed=0;whitespace=wrap;fillColor=#2875E2;strokeColor=#ffffff;points=[[0.005,0.63,0],[0.1,0.2,0],[0.9,0.2,0],[0.5,0,0],[0.995,0.63,0],[0.72,0.99,0],[0.5,1,0],[0.28,0.99,0]];shape=mxgraph.kubernetes.icon2;prIcon=pod" vertex="1" parent="492jZ1PQydKR7I9emrvx-20">
          <mxGeometry x="10" y="10" width="50" height="48" as="geometry" />
        </mxCell>
        <mxCell id="492jZ1PQydKR7I9emrvx-6" value="" style="aspect=fixed;sketch=0;html=1;dashed=0;whitespace=wrap;fillColor=#2875E2;strokeColor=#ffffff;points=[[0.005,0.63,0],[0.1,0.2,0],[0.9,0.2,0],[0.5,0,0],[0.995,0.63,0],[0.72,0.99,0],[0.5,1,0],[0.28,0.99,0]];shape=mxgraph.kubernetes.icon2;prIcon=pod" vertex="1" parent="492jZ1PQydKR7I9emrvx-20">
          <mxGeometry x="20" y="20" width="50" height="48" as="geometry" />
        </mxCell>
        <mxCell id="492jZ1PQydKR7I9emrvx-21" style="edgeStyle=orthogonalEdgeStyle;rounded=0;orthogonalLoop=1;jettySize=auto;html=1;entryX=0.5;entryY=0;entryDx=0;entryDy=0;entryPerimeter=0;exitX=0.5;exitY=1;exitDx=0;exitDy=0;exitPerimeter=0;strokeWidth=2;" edge="1" parent="1" source="492jZ1PQydKR7I9emrvx-15" target="492jZ1PQydKR7I9emrvx-2">
          <mxGeometry relative="1" as="geometry">
            <mxPoint x="249" y="198" as="sourcePoint" />
            <Array as="points">
              <mxPoint x="299" y="230" />
              <mxPoint x="249" y="230" />
            </Array>
          </mxGeometry>
        </mxCell>
        <mxCell id="492jZ1PQydKR7I9emrvx-22" style="edgeStyle=orthogonalEdgeStyle;rounded=0;orthogonalLoop=1;jettySize=auto;html=1;entryX=0.5;entryY=0;entryDx=0;entryDy=0;entryPerimeter=0;strokeWidth=2;" edge="1" parent="1" source="492jZ1PQydKR7I9emrvx-15" target="492jZ1PQydKR7I9emrvx-1">
          <mxGeometry relative="1" as="geometry">
            <Array as="points">
              <mxPoint x="299" y="230" />
              <mxPoint x="349" y="230" />
            </Array>
          </mxGeometry>
        </mxCell>
        <mxCell id="492jZ1PQydKR7I9emrvx-23" value="" style="aspect=fixed;sketch=0;html=1;dashed=0;whitespace=wrap;fillColor=#2875E2;strokeColor=#ffffff;points=[[0.005,0.63,0],[0.1,0.2,0],[0.9,0.2,0],[0.5,0,0],[0.995,0.63,0],[0.72,0.99,0],[0.5,1,0],[0.28,0.99,0]];shape=mxgraph.kubernetes.icon2;prIcon=pod" vertex="1" parent="1">
          <mxGeometry x="563" y="268" width="50" height="48" as="geometry" />
        </mxCell>
        <mxCell id="492jZ1PQydKR7I9emrvx-37" value="" style="aspect=fixed;sketch=0;html=1;dashed=0;whitespace=wrap;fillColor=#2875E2;strokeColor=#ffffff;points=[[0.005,0.63,0],[0.1,0.2,0],[0.9,0.2,0],[0.5,0,0],[0.995,0.63,0],[0.72,0.99,0],[0.5,1,0],[0.28,0.99,0]];shape=mxgraph.kubernetes.icon2;kubernetesLabel=1;prIcon=svc" vertex="1" parent="1">
          <mxGeometry x="451" y="150" width="50" height="48" as="geometry" />
        </mxCell>
        <mxCell id="492jZ1PQydKR7I9emrvx-40" style="edgeStyle=orthogonalEdgeStyle;rounded=0;orthogonalLoop=1;jettySize=auto;html=1;strokeWidth=2;" edge="1" parent="1" source="492jZ1PQydKR7I9emrvx-38" target="492jZ1PQydKR7I9emrvx-23">
          <mxGeometry relative="1" as="geometry" />
        </mxCell>
        <mxCell id="492jZ1PQydKR7I9emrvx-38" value="" style="aspect=fixed;sketch=0;html=1;dashed=0;whitespace=wrap;fillColor=#2875E2;strokeColor=#ffffff;points=[[0.005,0.63,0],[0.1,0.2,0],[0.9,0.2,0],[0.5,0,0],[0.995,0.63,0],[0.72,0.99,0],[0.5,1,0],[0.28,0.99,0]];shape=mxgraph.kubernetes.icon2;kubernetesLabel=1;prIcon=svc" vertex="1" parent="1">
          <mxGeometry x="563" y="150" width="50" height="48" as="geometry" />
        </mxCell>
        <mxCell id="492jZ1PQydKR7I9emrvx-39" style="edgeStyle=orthogonalEdgeStyle;rounded=0;orthogonalLoop=1;jettySize=auto;html=1;entryX=0.5;entryY=0;entryDx=0;entryDy=0;entryPerimeter=0;strokeWidth=2;" edge="1" parent="1" source="492jZ1PQydKR7I9emrvx-37" target="492jZ1PQydKR7I9emrvx-9">
          <mxGeometry relative="1" as="geometry" />
        </mxCell>
        <mxCell id="492jZ1PQydKR7I9emrvx-41" value="10.20.0.100" style="rounded=0;whiteSpace=wrap;html=1;" vertex="1" parent="1">
          <mxGeometry x="239" y="-60" width="120" height="30" as="geometry" />
        </mxCell>
        <mxCell id="492jZ1PQydKR7I9emrvx-42" style="edgeStyle=orthogonalEdgeStyle;rounded=0;orthogonalLoop=1;jettySize=auto;html=1;entryX=0.5;entryY=0;entryDx=0;entryDy=0;entryPerimeter=0;strokeWidth=2;" edge="1" parent="1" source="492jZ1PQydKR7I9emrvx-41" target="492jZ1PQydKR7I9emrvx-12">
          <mxGeometry relative="1" as="geometry" />
        </mxCell>
        <mxCell id="492jZ1PQydKR7I9emrvx-44" value="Alertmanager" style="text;html=1;align=center;verticalAlign=middle;resizable=0;points=[];autosize=1;strokeColor=none;fillColor=none;" vertex="1" parent="1">
          <mxGeometry x="426" y="335" width="100" height="30" as="geometry" />
        </mxCell>
        <mxCell id="492jZ1PQydKR7I9emrvx-45" value="InfluxDB" style="text;html=1;align=center;verticalAlign=middle;resizable=0;points=[];autosize=1;strokeColor=none;fillColor=none;" vertex="1" parent="1">
          <mxGeometry x="553" y="336" width="70" height="30" as="geometry" />
        </mxCell>
        <mxCell id="492jZ1PQydKR7I9emrvx-48" value="/grafana" style="text;html=1;align=center;verticalAlign=middle;resizable=0;points=[];autosize=1;strokeColor=none;fillColor=none;" vertex="1" parent="1">
          <mxGeometry x="228" y="180" width="70" height="30" as="geometry" />
        </mxCell>
        <mxCell id="492jZ1PQydKR7I9emrvx-49" value="/prometheus" style="text;html=1;align=center;verticalAlign=middle;resizable=0;points=[];autosize=1;strokeColor=none;fillColor=none;" vertex="1" parent="1">
          <mxGeometry x="299" y="180" width="90" height="30" as="geometry" />
        </mxCell>
        <mxCell id="492jZ1PQydKR7I9emrvx-51" style="edgeStyle=orthogonalEdgeStyle;rounded=0;orthogonalLoop=1;jettySize=auto;html=1;strokeWidth=2;" edge="1" parent="1" source="492jZ1PQydKR7I9emrvx-50" target="492jZ1PQydKR7I9emrvx-41">
          <mxGeometry relative="1" as="geometry" />
        </mxCell>
        <mxCell id="492jZ1PQydKR7I9emrvx-50" value="" style="image;aspect=fixed;html=1;points=[];align=center;fontSize=12;image=img/lib/azure2/general/Browser.svg;" vertex="1" parent="1">
          <mxGeometry x="224" y="-320" width="149" height="119.2" as="geometry" />
        </mxCell>
        <mxCell id="492jZ1PQydKR7I9emrvx-52" value="http://prometheus.education.cld" style="text;html=1;align=center;verticalAlign=middle;resizable=0;points=[];autosize=1;strokeColor=none;fillColor=none;" vertex="1" parent="1">
          <mxGeometry x="203.5" y="-350" width="190" height="30" as="geometry" />
        </mxCell>
      </root>
    </mxGraphModel>
  </diagram>
</mxfile>
